<mxfile host="app.diagrams.net" modified="2022-11-29T08:34:12.133Z" agent="5.0 (Windows NT 10.0; Win64; x64) AppleWebKit/537.36 (KHTML, like Gecko) Chrome/107.0.0.0 Safari/537.36" version="20.6.0" etag="rOTqiGR-w4t03LetVCI1" type="github">
  <diagram id="saAoNNfvjhwFS-k0Hx0o" name="Страница 1">
    <mxGraphModel dx="705" dy="458" grid="1" gridSize="10" guides="1" tooltips="1" connect="1" arrows="1" fold="1" page="1" pageScale="1" pageWidth="827" pageHeight="1169" math="0" shadow="0">
      <root>
        <mxCell id="0" />
        <mxCell id="1" parent="0" />
        <mxCell id="2wlWGYxxJUrvrBXpbSvd-1" value="&lt;font style=&quot;font-size: 8px;&quot;&gt;&amp;lt;&amp;lt; id = 94 &amp;gt;&amp;gt;&lt;/font&gt;&lt;br&gt;&lt;br&gt;Запрос МЗ РФ" style="rounded=1;whiteSpace=wrap;html=1;" vertex="1" parent="1">
          <mxGeometry x="440" y="220" width="120" height="60" as="geometry" />
        </mxCell>
        <mxCell id="2wlWGYxxJUrvrBXpbSvd-2" value="&lt;font style=&quot;font-size: 8px;&quot;&gt;&amp;lt;&amp;lt; id = 1 &amp;gt;&amp;gt;&lt;/font&gt;&lt;br&gt;ЗРЛП&lt;br&gt;&lt;br&gt;Заявление на регистрацию лекарственного препарата" style="rounded=1;whiteSpace=wrap;html=1;" vertex="1" parent="1">
          <mxGeometry x="40" y="140" width="310" height="60" as="geometry" />
        </mxCell>
        <mxCell id="2wlWGYxxJUrvrBXpbSvd-3" value="" style="endArrow=diamondThin;endFill=0;endSize=24;html=1;rounded=0;fontSize=8;entryX=1;entryY=0.5;entryDx=0;entryDy=0;exitX=0;exitY=0.5;exitDx=0;exitDy=0;edgeStyle=orthogonalEdgeStyle;" edge="1" parent="1" source="2wlWGYxxJUrvrBXpbSvd-1" target="2wlWGYxxJUrvrBXpbSvd-2">
          <mxGeometry width="160" relative="1" as="geometry">
            <mxPoint x="180" y="190" as="sourcePoint" />
            <mxPoint x="340" y="190" as="targetPoint" />
          </mxGeometry>
        </mxCell>
      </root>
    </mxGraphModel>
  </diagram>
</mxfile>
